<?xml version="1.0" standalone="no"?><!DOCTYPE svg PUBLIC "-//W3C//DTD SVG 1.1//EN" "http://www.w3.org/Graphics/SVG/1.1/DTD/svg11.dtd"><svg t="1649232388290" class="icon" viewBox="0 0 1102 1024" version="1.1" xmlns="http://www.w3.org/2000/svg" p-id="12761" xmlns:xlink="http://www.w3.org/1999/xlink" width="34.4375" height="32"><defs><style type="text/css">@font-face { font-family: feedback-iconfont; src: url("//at.alicdn.com/t/font_1031158_u69w8yhxdu.woff2?t=1630033759944") format("woff2"), url("//at.alicdn.com/t/font_1031158_u69w8yhxdu.woff?t=1630033759944") format("woff"), url("//at.alicdn.com/t/font_1031158_u69w8yhxdu.ttf?t=1630033759944") format("truetype"); }
</style></defs><path d="M93.105231 187.943385a78.769231 78.769231 0 1 1 0-157.538462 78.769231 78.769231 0 0 1 0 157.538462z m0 393.846153a78.769231 78.769231 0 1 1 0-157.538461 78.769231 78.769231 0 0 1 0 157.538461z m0 393.846154a78.769231 78.769231 0 1 1 0-157.538461 78.769231 78.769231 0 0 1 0 157.538461zM276.243692 161.792v-118.153846h787.692308v118.153846h-787.692308z m0.472616 397.233231v-118.153846h788.007384v118.153846H276.716308z m-3.308308 397.154461v-118.153846h789.267692v118.153846H273.329231z" fill="#515151" p-id="12762"></path></svg>