<?xml version="1.0" standalone="no"?><!DOCTYPE svg PUBLIC "-//W3C//DTD SVG 1.1//EN" "http://www.w3.org/Graphics/SVG/1.1/DTD/svg11.dtd"><svg t="1649229124627" class="icon" viewBox="0 0 1024 1024" version="1.1" xmlns="http://www.w3.org/2000/svg" p-id="5652" xmlns:xlink="http://www.w3.org/1999/xlink" width="32" height="32"><defs><style type="text/css">@font-face { font-family: feedback-iconfont; src: url("//at.alicdn.com/t/font_1031158_u69w8yhxdu.woff2?t=1630033759944") format("woff2"), url("//at.alicdn.com/t/font_1031158_u69w8yhxdu.woff?t=1630033759944") format("woff"), url("//at.alicdn.com/t/font_1031158_u69w8yhxdu.ttf?t=1630033759944") format("truetype"); }
</style></defs><path d="M545.3 630.5c-11 0-20-9-20-20V405.9c0-11 9-20 20-20s20 9 20 20v204.6c0 11-9 20-20 20z" p-id="5653" fill="#515151"></path><path d="M478.5 491.2c-5.1 0-10.2-2-14.1-5.9-7.8-7.8-7.8-20.5 0-28.3l67.1-67.1c7.8-7.8 20.5-7.8 28.3 0s7.8 20.5 0 28.3l-67.1 67.1c-4 4-9.1 5.9-14.2 5.9z" p-id="5654" fill="#515151"></path><path d="M169.6 791c-5.7 0-11.4-2.4-15.3-7.1-27.4-32.6-48.8-69.2-63.5-109-15.3-41.1-23-84.4-23-128.7 0-49.9 9.8-98.3 29-143.8 18.6-44 45.2-83.5 79.2-117.4 33.9-33.9 73.4-60.6 117.4-79.2 45.6-19.3 93.9-29 143.8-29h274c11 0 20 9 20 20s-9 20-20 20h-274c-181.7 0-329.5 147.8-329.5 329.5 0 77.5 27.4 152.7 77.2 211.9 7.1 8.5 6 21.1-2.4 28.2-3.8 3-8.4 4.6-12.9 4.6z" p-id="5655" fill="#515151"></path><path d="M712.7 215.5c-5.1 0-10.2-2-14.1-5.9l-67.1-67.1c-7.8-7.8-7.8-20.5 0-28.3s20.5-7.8 28.3 0l67.1 67.1c7.8 7.8 7.8 20.5 0 28.3-4 3.9-9.1 5.9-14.2 5.9z" p-id="5656" fill="#515151"></path><path d="M586.9 847.3h-274c-11 0-20-9-20-20s9-20 20-20h274c181.7 0 329.5-147.8 329.5-329.5 0-77.5-27.4-152.7-77.2-211.9-7.1-8.5-6-21.1 2.4-28.2 8.5-7.1 21.1-6 28.2 2.4 27.4 32.6 48.8 69.2 63.5 109 15.3 41.1 23 84.4 23 128.7 0 49.9-9.8 98.3-29 143.8-18.6 44-45.2 83.5-79.2 117.4s-73.4 60.6-117.4 79.2c-45.6 19.3-94 29.1-143.8 29.1z" p-id="5657" fill="#515151"></path><path d="M378.4 915.6c-5.1 0-10.2-2-14.1-5.9l-67.1-67.1c-7.8-7.8-7.8-20.5 0-28.3 7.8-7.8 20.5-7.8 28.3 0l67.1 67.1c7.8 7.8 7.8 20.5 0 28.3-3.9 4-9.1 5.9-14.2 5.9z" p-id="5658" fill="#515151"></path></svg>