<?xml version="1.0" standalone="no"?><!DOCTYPE svg PUBLIC "-//W3C//DTD SVG 1.1//EN" "http://www.w3.org/Graphics/SVG/1.1/DTD/svg11.dtd"><svg t="1649229243459" class="icon" viewBox="0 0 1024 1024" version="1.1" xmlns="http://www.w3.org/2000/svg" p-id="7761" xmlns:xlink="http://www.w3.org/1999/xlink" width="32" height="32"><defs><style type="text/css">@font-face { font-family: feedback-iconfont; src: url("//at.alicdn.com/t/font_1031158_u69w8yhxdu.woff2?t=1630033759944") format("woff2"), url("//at.alicdn.com/t/font_1031158_u69w8yhxdu.woff?t=1630033759944") format("woff"), url("//at.alicdn.com/t/font_1031158_u69w8yhxdu.ttf?t=1630033759944") format("truetype"); }
</style></defs><path d="M206 865h-38c-30.928 0-56-25.072-56-56V216c0-30.928 25.072-56 56-56h38c30.928 0 56 25.072 56 56v593c0 30.928-25.072 56-56 56z m168.686-386.191l422.304-303.4c32.294-23.201 77.282-15.83 100.484 16.464A72 72 0 0 1 911 233.883v559.053c0 39.764-32.235 72-72 72a72 72 0 0 1-39.95-12.1L376.288 570.877c-25.73-17.16-32.677-51.93-15.517-77.66a56 56 0 0 1 13.915-14.408z" p-id="7762" fill="#515151"></path></svg>